Coordinates
version=1
nRows=7
nColumns=40
inDegrees=yes

Units are S.I. units (second, meters, Newtons, ...)
If the header above contains a line with 'inDegrees', this indicates whether rotational values are in degrees (yes) or radians (no).

endheader
time	pelvis_tilt	pelvis_list	pelvis_rotation	pelvis_tx	pelvis_ty	pelvis_tz	hip_flexion_r	hip_adduction_r	hip_rotation_r	knee_angle_r	knee_angle_r_beta	ankle_angle_r	subtalar_angle_r	mtp_angle_r	hip_flexion_l	hip_adduction_l	hip_rotation_l	knee_angle_l	knee_angle_l_beta	ankle_angle_l	subtalar_angle_l	mtp_angle_l	lumbar_extension	lumbar_bending	lumbar_rotation	arm_flex_r	arm_add_r	arm_rot_r	elbow_flex_r	pro_sup_r	wrist_flex_r	wrist_dev_r	arm_flex_l	arm_add_l	arm_rot_l	elbow_flex_l	pro_sup_l	wrist_flex_l	wrist_dev_l
     11.85000000	     -6.13944339	     10.41747771	    -11.14591739	      0.05098639	      1.31187119	      0.01621392	     44.94792113	     -4.02490120	     10.84897785	     43.66668111	      0.76212736	    -17.00874386	    -33.74788349	      0.00000000	     65.51717896	    -10.24050678	     -8.93138710	    105.08031071	      1.83399740	    -18.15475576	    -20.49918858	      0.00000000	    -34.14071350	    -11.24419525	      0.91467514	     53.48897800	      5.82684530	    -27.04950797	     52.92507273	     81.76300403	      0.00000000	      0.00000000	     68.32125921	      3.26868680	    -13.62619833	     40.53060859	     85.83551253	      0.00000000	      0.00000000
     11.86700000	     -6.30352142	     10.40034567	    -10.00217235	      0.05101412	      1.31160437	      0.01534706	     42.24908597	     -5.40421338	      9.22349399	     40.96294429	      0.71493825	    -18.24839510	    -33.75416889	      0.00000000	     68.60230227	     -9.77744816	     -7.52614497	    106.70136985	      1.86229022	    -17.18145703	    -20.02383492	      0.00000000	    -34.09378488	    -10.89708171	      0.20291028	     53.13850254	      5.40712739	    -26.82689769	     53.12706761	     81.55440712	      0.00000000	      0.00000000	     68.41016316	      3.59227801	    -13.63712896	     40.47746069	     86.26437706	      0.00000000	      0.00000000
     11.88300000	     -6.43864049	     10.58304203	     -9.34765720	      0.05080225	      1.31139967	      0.01496517	     40.14189164	     -6.50081247	      8.13082548	     39.32844404	      0.68641084	    -19.55848596	    -33.69109237	      0.00000000	     71.38735244	     -9.55462489	     -6.70640407	    107.70677470	      1.87983785	    -15.76890793	    -20.06432878	      0.00000000	    -33.98715679	    -10.97627488	     -0.29346082	     52.92366775	      5.09386937	    -26.65176357	     53.15005828	     81.40761979	      0.00000000	      0.00000000	     68.40589183	      3.73370487	    -13.42794411	     40.65184235	     86.26149761	      0.00000000	      0.00000000
     11.90000000	     -6.50701157	     10.57007141	     -8.63952175	      0.05077743	      1.31125069	      0.01440571	     38.40043739	     -7.43171892	      6.88876669	     38.72679254	      0.67591004	    -20.28808176	    -33.62661074	      0.00000000	     73.83809173	     -9.14322431	     -5.76240224	    108.02486432	      1.88538956	    -14.52078604	    -20.00694103	      0.00000000	    -33.99259816	    -10.75568069	     -0.86540740	     52.85998254	      4.83467233	    -26.41309284	     53.05041847	     81.32629556	      0.00000000	      0.00000000	     68.33221901	      3.75983313	    -13.31306421	     40.94707169	     86.40943795	      0.00000000	      0.00000000
     11.91700000	     -6.54463616	     10.70738817	     -8.43264753	      0.05063755	      1.31112968	      0.01449039	     37.35204240	     -8.07184478	      6.43517743	     39.28168427	      0.68559473	    -20.87862552	    -33.63000107	      0.00000000	     75.82839218	     -9.01193205	     -5.31137746	    107.57230847	      1.87749097	    -13.27188479	    -20.31568938	      0.00000000	    -34.02733647	    -10.86000087	     -1.17559987	     52.94064100	      4.62411773	    -26.10540429	     52.90280046	     80.65840549	      0.00000000	      0.00000000	     68.39874224	      3.76203075	    -13.17416639	     40.98997022	     85.89690170	      0.00000000	      0.00000000
     11.93300000	     -6.34022066	     10.64080799	     -8.53143682	      0.05056894	      1.31132603	      0.01488792	     36.60620336	     -8.33678520	      6.39467377	     40.99929123	      0.71557262	    -20.92376656	    -33.54297614	      0.00000000	     77.22136907	     -9.09056802	     -4.85634786	    106.45346992	      1.85796355	    -12.37514543	    -20.63339126	      0.00000000	    -34.34196414	    -10.86686728	     -1.21735495	     53.15678444	      4.49361319	    -25.96485319	     52.85484623	     80.53939868	      0.00000000	      0.00000000	     68.46077509	      3.75797974	    -13.15333840	     41.19025748	     85.71782275	      0.00000000	      0.00000000
     11.95000000	     -6.15658827	     10.46811578	     -8.61550952	      0.05054647	      1.31163130	      0.01513426	     36.32098459	     -8.44508530	      6.46859901	     43.47883913	      0.75884890	    -20.85895244	    -33.59303533	      0.00000000	     78.10907778	     -9.02724242	     -4.40003562	    104.70348498	      1.82742055	    -11.48844911	    -21.03749928	      0.00000000	    -34.63913246	    -10.70227928	     -1.22940053	     53.41718624	      4.41614536	    -25.79019193	     52.76351258	     80.41494678	      0.00000000	      0.00000000	     68.50524726	      3.71739073	    -13.18385175	     41.34232384	     85.53131339	      0.00000000	      0.00000000
